# xmcd
#
# Track frame offsets:
#	150
#	13350
#	24450
#	42525
#	52575
#	62850
#	79275
#
# Disc length: 1208 seconds
#
# Revision: 2
# Processed by: cddbd v1.4PL0 Copyright (c) Steve Scherf et al.
# Submitted via: audiograbber 1.81.01
#
DISCID=5704b607
DTITLE=Tri Cutory - Vesele trampske a vodacke pisne pro chvile pohody
DYEAR=1998
DGENRE=Country
TTITLE0=SOVY HU
TTITLE1=DYMKA MIRU
TTITLE2=PSI SPREZENI
TTITLE3=KAPITAN KORMORAN
TTITLE4=RYCHLEJ JIMMY
TTITLE5=SPRAVEDLIVEJ SMICH
TTITLE6=MOC DOBRE TO ZNAM
EXTD=
EXTT0=
EXTT1=
EXTT2=
EXTT3=
EXTT4=
EXTT5=
EXTT6=
PLAYORDER=
